<svg width="700mm" height="300mm" version="1.1" viewBox="0 0 700 300" xmlns="http://www.w3.org/2000/svg">
 <g transform="translate(193.68 74.877)">
  <g transform="matrix(.26323 0 0 .26458 -370.48 -332.85)" fill="#fff">
   <g fill-rule="evenodd">
    <path class="cls-2" d="m1562.1 1602c5.27 9.1 12.27 10.15 16.4 10.27v0.09l172.48-0.09-34.66 60.09-177.82 0.09c-11.54-0.45-30.87-3.29-45.38-28.45-1.18-2.05-4.89-8.46-10.35-17.86-1.25-2.18-2.6-4.55-4.07-7.01-0.3-0.66-0.69-1.3-1.1-1.99-4.76-8.33-10.51-18.18-16.77-29.03l48.67-83.56h303.41l-34.38 59.77h-206.73l-15.87 27.11c3.34 5.68 5.6 9.55 6.16 10.57z"/>
    <path class="cls-2" d="m2117.7 1671.9h-96.12c-4.71-8.07-29.15-50.43-62.15-107.49h-46.44c-17.52 30.03-38.08 65.66-62.62 108.19h-96.94s52.51-90.93 97.09-167.96h195.39c9.36-16.26 18.62-32.21 26.24-45.41l-572.94 0.21c-29.92 52.27-71.92 125.58-95.02 165.91-6.35 11.06-11.32 19.65-14.06 24.52-1.38 2.31-2.17 3.82-2.58 4.46-0.24 0.38-0.37 0.7-0.54 0.9-1.08 1.88-2.2 3.52-3.25 5-0.45 0.58-0.9 1.05-1.38 1.56-0.6 0.75-1.23 1.6-1.96 2.22-0.52 0.51-1.01 0.9-1.51 1.37-0.62 0.45-1.14 1-1.77 1.43-0.54 0.43-1.12 0.64-1.72 0.96-0.52 0.28-1.05 0.66-1.57 0.9-0.65 0.32-1.25 0.49-1.79 0.68-0.52 0.15-1.08 0.36-1.53 0.51-0.62 0.19-1.31 0.32-2.02 0.38-0.41 0.09-0.88 0.23-1.29 0.23-0.86 0.15-1.55 0.15-2.39 0.23-0.34 0-0.69 0.09-1.08 0.09-1.29 0.11-2.63 0.11-3.98 0.13l-148.13 0.04c-41.08-70.87-108.48-186.86-114.55-197.37-8.85-15.29-4.74-22.94 0.06-31.19l28.4-43h103.44l-34.94 53.27s-3.12 5.21 0 10.72c0.41 1 50.07 86.38 86.41 148.95l22.13-0.04h0.37c0.06 0 0.19-0.02 0.28-0.02h0.41c0.13 0 0.37-0.06 0.56-0.15 0.17 0 0.32 0 0.58-0.04 0.22-0.06 0.45-0.19 0.75-0.28 0.11-0.04 0.39-0.09 0.58-0.15 0.26-0.09 0.62-0.23 0.88-0.38 0.13-0.04 0.39-0.13 0.62-0.28 0.3-0.19 0.62-0.32 1.01-0.62 0.15-0.06 0.3-0.15 0.5-0.34 0.34-0.3 0.75-0.58 1.03-0.98 0.15-0.11 0.37-0.23 0.47-0.32 0.45-0.53 0.9-1.11 1.29-1.79 1.55-2.54 119.39-207.54 119.39-207.54h712.64s11.71 20.72 12.23 21.77c0.09 0.19 0.09 0.38 0.24 0.56 1.25 2.8 2.39 6.04 3.23 9.65 2.24 10.04 1.79 23.01-7.36 38.96l-54.75 94.05h-41.03c33.02 57.05 57.54 99.41 62.19 107.49h-1.01z"/>
    <path class="cls-2" d="m2813 1564.4h-206.75l-15.82 27.11c3.27 5.68 5.53 9.55 6.16 10.57 5.23 9.1 12.16 10.15 16.38 10.27v0.09l172.46-0.09-34.64 60.09-177.91 0.23s-30.78-3.44-45.36-28.6c-2.22-3.89-13.37-23.05-28.63-49.51-1.21-2.05-2.45-4.21-3.68-6.37l48.72-83.56h303.41z"/>
    <path class="cls-2" d="m2873.9 1458.9-582.61 0.32-76.92 132.22c3.27 5.68 5.43 9.55 6.05 10.57 5.27 9.1 12.23 10.15 16.47 10.27v0.09l113.93-0.09 27.96-47.95h-112.14l35.15-60.39h206.49l-56.12 96.21-42.13 72.45h-213.28l0.15-0.15c-1.16-0.09-2.33-0.13-3.62-0.26h-0.47c-1.23-0.17-2.63-0.3-4.09-0.51q-0.06-0.02-0.22-0.02c-9-1.56-19.93-5.66-29.79-17.3l-0.02-0.02c-2.45-2.95-4.93-6.3-7.25-10.34-2.41-4.14-15.2-26.23-32.29-55.88 0 0 62.88-108.79 84.93-147.04v-0.02c1.16-2.01 2.17-3.82 3.1-5.43 0 0 0.02-0.02 0.09-0.06 0.26-0.43 0.41-0.73 0.65-1.11 1.64-2.88 2.76-4.87 3.38-5.87 0.15-0.34 0.39-0.66 0.39-0.7 14.55-25.16 45.34-28.58 45.34-28.58h651.54l-34.66 59.6z"/>
   </g>
   <path class="cls-1" d="m1426.6 1833.4h29.24l89.11 207.72 90.56-207.72h29.24l-116.97 268.86h-5.85z"/>
   <path class="cls-1" d="m1780.9 1833.4h26.87v268.86h-26.87z"/>
   <path class="cls-1" d="m2194.6 1883.3-21.2 16.27c-11.7-15.23-25.74-26.78-42.13-34.64s-34.39-11.79-54.01-11.79c-21.45 0-41.31 5.15-59.58 15.44-18.28 10.3-32.44 24.13-42.49 41.49s-15.08 36.89-15.08 58.58c0 32.78 11.24 60.13 33.72 82.07 22.48 21.93 50.84 32.9 85.08 32.9 37.65 0 69.15-14.74 94.5-44.23l21.2 16.08c-13.4 17.06-30.13 30.25-50.17 39.57s-42.43 13.98-67.17 13.98c-47.04 0-84.14-15.66-111.31-46.97-22.79-26.44-34.18-58.36-34.18-95.77 0-39.36 13.8-72.47 41.4-99.34s62.17-40.3 103.72-40.3c25.1 0 47.76 4.97 67.99 14.9 20.22 9.93 36.8 23.85 49.71 41.76z"/>
   <path class="cls-1" d="m2573.8 1883.3-21.2 16.27c-11.7-15.23-25.74-26.78-42.13-34.64s-34.39-11.79-54.01-11.79c-21.45 0-41.31 5.15-59.58 15.44-18.28 10.3-32.44 24.13-42.49 41.49s-15.08 36.89-15.08 58.58c0 32.78 11.24 60.13 33.72 82.07 22.48 21.93 50.84 32.9 85.08 32.9 37.65 0 69.15-14.74 94.49-44.23l21.2 16.08c-13.4 17.06-30.13 30.25-50.17 39.57-20.05 9.32-42.44 13.98-67.17 13.98-47.04 0-84.14-15.66-111.31-46.97-22.79-26.44-34.18-58.36-34.18-95.77 0-39.36 13.8-72.47 41.4-99.34s62.17-40.3 103.72-40.3c25.1 0 47.76 4.97 67.99 14.9s36.8 23.85 49.71 41.76z"/>
   <path class="cls-1" d="m865.19 1105.8c1.59 1.1 2.78 2.03 4.07 2.8 20.09 11.99 31.03 29.63 32.51 52.96 1.06 16.75-1.55 32.74-10.81 47.18-8.91 13.89-21.68 22.93-36.81 28.8-11.38 4.41-23.17 7.31-35.45 7.59-18.54 0.43-37.09 0.87-55.64 0.99-25.15 0.17-50.3 0.04-75.44 0.04-1.35 0-2.71 0.04-4.06-0.01-8.39-0.3-11.46-3.39-11.48-11.77-0.04-20.49-0.01-40.98-0.01-61.47 0-24.74 0.05-49.48-0.01-74.23-0.09-35.56-0.25-71.13-0.38-106.69 0-1.93-0.04-3.87 0-5.8 0.16-8.13 3.03-11.13 11.33-11.13 42.36 0 84.74-0.42 127.09 0.36 21.98 0.41 42.83 6.35 60.21 20.82 15.75 13.11 23.57 30.23 24.24 50.65 0.25 7.57-0.38 15.04-2.27 22.4-3.71 14.45-11.54 25.98-24.05 34.24-0.92 0.61-1.77 1.32-3.02 2.26zm-128.78-72.87c-1.57 10.38-1.41 150.08 0.18 155.22 2.08 0.14 4.34 0.43 6.61 0.43 17.21 0.04 34.43 0.1 51.64-0.02 6.55-0.05 13.15-0.13 19.64-0.95 10.47-1.33 18.7-6.15 21.96-16.96 1.58-5.24 1.85-10.59 0.65-16.03-1.51-6.9-5.39-11.89-11.63-15.01-5.07-2.54-10.52-3.45-16.19-3.83-3.25-0.22-5.21 0.23-7.27 3-3.71 4.99-9.1 6.36-14.39 4.53-8-2.78-11.41-10.43-7.99-18.81 4.61-11.29 4.51-22.44 0.44-33.88-1.02-2.88-1.05-6.51-0.34-9.51 1.28-5.41 5.52-8.35 10.85-9.14 4.94-0.73 9.31 1.15 12.11 5.26 2.2 3.24 4.52 4.46 8.22 2.96 1.04-0.42 2.3-0.29 3.42-0.57 10.07-2.52 17.15-8.31 18.63-18.95 1.89-13.63-2.87-23.79-18.2-26.56-3.59-0.65-7.27-1.12-10.91-1.14-20.69-0.11-41.39-0.05-62.08-0.05h-5.36zm63.29 52.41c-0.03-3.89-3.42-7.25-7.37-7.29-3.89-0.04-7.48 3.32-7.62 7.12-0.14 4.13 3.41 7.57 7.71 7.48 4.1-0.09 7.3-3.3 7.27-7.3zm-0.78 45.34c0.06-4.17-2.92-7.32-7.04-7.45-4.3-0.14-7.85 3.25-7.77 7.42 0.07 3.95 3.38 7.14 7.45 7.19 4.1 0.05 7.3-3.07 7.36-7.15z"/>
   <path class="cls-1" d="m2909.8 1094.8c-0.09 1.85-0.25 3.7-0.25 5.55-0.16 43.87-0.3 87.74-0.47 131.62 0 2.51-0.04 5.03-0.34 7.52-0.47 3.84-2.52 6.42-6.55 7.01-2.28 0.33-4.57 0.82-6.86 0.84-11.8 0.08-23.6 0.04-35.4 0.04-0.58 0-1.17 0.05-1.74-0.01-9.53-0.99-12.03-2.84-12.03-12.45 0-34.41 0.07-68.81-0.03-103.22-0.13-45.81-0.4-91.61-0.61-137.42 0-2.12-0.09-4.26 0.11-6.37 0.7-7.23 3.48-9.89 10.71-10.24 3.09-0.15 6.19-0.09 9.28-0.09 9.09 0 18.2 0.33 27.27-0.1 8.72-0.41 14.71 3.09 19.13 10.43 7.57 12.58 15.46 24.97 23.19 37.46 16.27 26.29 32.53 52.58 48.78 78.88 4.57 7.4 9.05 14.84 13.62 22.24 0.86 1.39 1.94 2.65 4.12 3.74 0.1-2.19 0.29-4.37 0.28-6.56-0.07-42.33-0.17-84.66-0.26-126.99 0-2.9-0.1-5.8 0.02-8.7 0.3-6.78 3.25-10.12 10.02-10.23 14.31-0.24 28.63-0.23 42.94 0 6.29 0.1 9.08 3.16 9.63 9.34 0.17 1.92 0.12 3.86 0.12 5.79-0.05 33.25-0.12 66.49-0.17 99.74-0.08 46.78-0.15 93.55-0.22 140.33-0.02 11.95-2.52 14.41-14.75 14.44-10.06 0.02-20.12-0.19-30.18 0.06-8.75 0.22-15.02-3.11-19.63-10.7-13.03-21.47-26.37-42.75-39.63-64.08-15.4-24.77-30.85-49.52-46.28-74.28-0.81-1.3-1.72-2.53-2.59-3.79-0.41 0.07-0.83 0.14-1.24 0.22z"/>
   <path class="cls-1" d="m1948.9 1035.3v44.7c2.77 0.14 5.24 0.38 7.71 0.38 32.31 0.02 64.61 0 96.92 0.03 2.7 0 5.42 0.07 8.1 0.36 5.53 0.6 7.88 2.93 8.63 8.37 0.18 1.33 0.17 2.7 0.17 4.05 0 9.86 0.02 19.72-0.04 29.57-0.01 1.92-0.14 3.87-0.53 5.75-0.8 3.8-3.14 6.17-7.1 6.54-2.88 0.28-5.79 0.44-8.68 0.44-32.5 0.03-65 0.01-97.5 0.04-2.47 0-4.93 0.26-7.78 0.42v54.37c2.56 0.22 5.15 0.63 7.73 0.63 39.46 0.04 78.93 0.03 118.39 0.03 1.93 0 3.87-0.03 5.8 0.02 7.35 0.21 10.12 2.77 10.39 10.16 0.23 6.18 0.06 12.37 0.06 18.55 0 5.61 0.13 11.22-0.05 16.82-0.21 6.57-2.3 8.98-8.66 10.25-2.06 0.41-4.21 0.56-6.31 0.56-59 0.03-118 0.03-177.01 0-2.1 0-4.24-0.22-6.3-0.64-6.06-1.25-7.68-3.15-8.14-9.36-0.14-1.92-0.09-3.86-0.09-5.8 0-24.94 0.06-49.87-0.02-74.81-0.16-54.7-0.4-109.4-0.59-164.1-0.04-12.74 2.33-15.09 15.28-15.09 56.68-0.01 113.36 0 170.04 0 1.35 0 2.71 0 4.06 0.06 7.83 0.36 10.86 3.34 11.07 11.04 0.1 3.48 0.01 6.96 0.01 10.44 0 7.93 0.03 15.85-0.04 23.78-0.08 9.34-3.18 12.33-12.69 12.44-1.74 0.02-3.48 0-5.22 0h-110.27-7.35z"/>
   <path class="cls-1" d="m1451.9 1035.3v44.52c2.73 0.2 5.33 0.55 7.93 0.55 32.5 0.04 65 0.02 97.5 0.04 2.7 0 5.42 0.08 8.1 0.4 5.12 0.61 7.6 3.08 8.1 8.18 0.28 2.87 0.17 5.79 0.17 8.69 0 8.51 0.03 17.01-0.04 25.52-0.08 9.54-2.5 12.05-12.06 12.06-27.28 0.05-54.55 0-81.83-0.02-7.54 0-15.09-0.03-22.63 0.04-1.68 0.02-3.36 0.39-5.3 0.64v54.4c2.65 0.22 5.23 0.63 7.82 0.64 39.85 0.04 79.7 0.03 119.55 0.03 2.13 0 4.26-0.05 6.38 0.08 5.64 0.34 8.29 3.01 8.74 8.71 0.05 0.58 0.05 1.16 0.05 1.74 0 11.6 0.07 23.2-0.02 34.79-0.06 7.03-1.96 9.23-8.86 10.58-1.88 0.37-3.83 0.47-5.75 0.47-59.2 0.02-118.39 0.02-177.59 0.02h-1.16c-10.29-0.21-12.87-2.85-12.95-13.22v-0.58c-0.21-80.22-0.43-160.43-0.62-240.65 0-2.31-0.05-4.66 0.3-6.93 0.76-5.03 3.29-7.5 8.34-8.2 2.09-0.29 4.25-0.23 6.37-0.23 56.87-0.01 113.75-0.01 170.62 0 2.13 0 4.29-0.09 6.37 0.24 5.32 0.83 7.71 3.5 8.25 8.88 0.12 1.15 0.14 2.32 0.14 3.47 0 10.82 0.01 21.65-0.06 32.47-0.07 9.75-3.02 12.66-12.97 12.67-38.5 0.03-76.99 0.01-115.49 0.01h-7.39z"/>
   <path class="cls-1" d="m1217.1 1136c-1.1 0.67-1.87 0.95-2.37 1.48-7.24 7.51-14.4 15.11-21.7 22.57-2.3 2.35-2.39 5.11-2.39 8.04 0.02 21.26 0.02 42.52 0 63.78 0 2.51 0.01 5.05-0.33 7.52-0.52 3.75-2.39 6.5-6.49 7.07-2.28 0.32-4.57 0.83-6.86 0.85-11.8 0.09-23.6 0.04-35.4 0.04h-0.58c-10.41-0.2-12.88-2.71-12.96-13.17v-0.58c-0.21-80.21-0.43-160.41-0.62-240.62 0-2.5 0.04-5.04 0.45-7.5 0.79-4.78 3.25-7.05 8.05-7.75 1.52-0.22 3.09-0.2 4.63-0.2 12.57-0.01 25.15-0.02 37.72 0 1.74 0 3.52-0.06 5.2 0.31 3.89 0.87 6.71 3.04 7.21 7.28 0.34 2.87 0.61 5.77 0.61 8.65-0.03 26.29-0.13 52.57-0.19 78.86 0 2.24 0.17 4.47 1.39 7.12 1.55-1.62 3.14-3.21 4.65-4.87 25.7-28.35 51.59-56.52 76.96-85.16 7.62-8.6 15.78-13.11 27.63-12.42 15.04 0.88 30.16 0.21 45.25 0.21h3.48c3.16-0.01 6.37-0.02 7.77 3.6 1.3 3.36-0.28 6-2.47 8.37-8.9 9.66-17.81 19.31-26.73 28.96-20.73 22.42-41.46 44.83-62.18 67.26-0.91 0.98-1.7 2.08-2.82 3.45 0.99 1.78 1.92 3.63 2.99 5.4 27.51 45.45 55.05 90.88 82.5 136.36 1.56 2.58 2.97 5.49 3.45 8.41 0.71 4.26-1.13 6.46-5.37 7.54-1.65 0.42-3.43 0.45-5.15 0.45-13.93 0.03-27.86-0.31-41.78 0.12-11.99 0.37-19.92-4.83-25.86-14.99-17.34-29.69-35.07-59.15-52.67-88.68-1.55-2.61-3.29-5.1-5.02-7.77z"/>
   <path class="cls-1" d="m3117.7 1111.7c0-14.88 0.25-29.76-0.05-44.63-0.73-36.74 16.53-62.68 48.9-78.01 41.57-19.68 83.13-17.64 123.29 4.81 16.11 9 28.35 21.98 34.84 39.67 2.96 8.06 4.37 16.42 4 25.01-0.3 6.84-2.38 9.02-9.3 9.12-13.34 0.2-26.69 0.16-40.03 0.02-5.83-0.06-8.49-2-9.56-7.31-3.13-15.59-13.62-23.54-27.99-27.63-9.82-2.79-19.82-3.42-29.77-1.16-19.75 4.48-31.91 18.87-32.3 39.11-0.53 27.62-0.63 55.26-0.44 82.89 0.14 20.25 13.71 34.66 33.86 37.82 9.18 1.44 18.09 1.03 26.92-1.37 15.22-4.14 23.69-14.45 26.46-29.72 0.41-2.28 0.76-4.59 0.83-6.89 0.11-3.52-0.72-4.41-4.39-4.48-6.77-0.12-13.54-0.04-20.31-0.05-4.25 0-8.51 0.08-12.76-0.04-6-0.18-8.76-2.39-8.92-8.3-0.32-11.78-0.3-23.57-0.03-35.35 0.14-5.72 2.71-7.95 8.42-8.1 6.96-0.19 13.92-0.08 20.89-0.08h63.82c1.74 0 3.48-0.04 5.22 0.04 5.9 0.27 7.77 1.88 8.82 7.81 0.37 2.08 0.46 4.22 0.47 6.34 0.04 15.46-0.02 30.92 0.03 46.38 0.09 30.66-13.5 53.75-39.19 69.84-17.84 11.17-37.51 16.77-58.54 18.01-22.78 1.35-44.59-2.35-65.23-12-19.39-9.06-34.51-22.6-42.53-42.99-3.42-8.7-5.15-17.78-5.17-27.15-0.02-17.2 0-34.4 0-51.6h-0.27z"/>
   <path class="cls-1" d="m2429.5 1153c6.96 0 13.93-0.14 20.89 0.04 7.29 0.18 10.23 2.83 11.04 9.96 1.41 12.41 8.45 20.63 19.5 25.28 11.95 5.04 24.62 6.45 37.47 4.45 5.28-0.82 10.7-1.86 15.56-3.96 10.41-4.48 15.58-15.93 12.9-26.97-1.2-4.95-4.1-8.98-8.59-11.15-6.04-2.92-12.27-5.69-18.71-7.51-14.82-4.2-29.93-7.4-44.7-11.75-15.01-4.42-29.59-10.07-42.79-18.77-23.02-15.17-31.72-37.14-29.84-63.76 2.25-31.8 20.98-51.35 49.07-63.05 20.52-8.54 41.99-11.2 64.18-8.61 18.04 2.1 35.29 6.54 51.12 15.61 14.52 8.31 25.82 19.63 31.77 35.59 3 8.06 4.2 16.46 3.74 25.06-0.31 5.67-2 7.42-7.68 8.26-1.14 0.17-2.31 0.19-3.47 0.19-12.19 0.01-24.38-0.09-36.56 0.05-5.52 0.07-9.36-2-11.13-7.31-4.8-14.37-15.51-21.45-29.7-24.52-10.84-2.34-21.53-2.16-31.91 1.77-3.72 1.41-7.42 3.47-10.42 6.05-8.14 7-8.31 17.79-0.91 25.6 5.18 5.47 11.6 9.15 18.54 11.56 13.11 4.54 26.45 8.39 39.64 12.71 12.64 4.13 25.28 8.31 37.78 12.84 4.5 1.63 8.75 4.11 12.84 6.64 17.92 11.08 27.18 27.44 28.89 48.25 1.47 17.9-0.67 35.14-10.24 50.79-10.28 16.81-25.77 26.82-44.05 33.03-17.98 6.11-36.53 7.59-55.38 7-20.87-0.65-40.38-6.07-58.48-16.34-15.7-8.9-28.1-21.07-35.45-37.84-4.18-9.54-5.83-19.59-5.48-29.95 0.25-7.15 2.3-9.08 9.67-9.21 6.96-0.12 13.93-0.03 20.89-0.03v0.02z"/>
   <path class="cls-1" d="m2296.7 1202.2h-5.7-89.36c-5.95 0-5.99 0.02-8.1 5.9-3.32 9.26-6.52 18.57-9.89 27.82-3.19 8.74-5.32 11.05-15.85 11.36-13.53 0.41-27.07 0.12-40.61 0.07-1.32 0-2.69-0.24-3.96-0.62-4.1-1.24-5.09-2.52-4.66-6.71 0.21-2.07 0.89-4.14 1.62-6.11 9.89-26.8 19.85-53.56 29.74-80.36 19.7-53.42 39.37-106.86 59.05-160.28 0.47-1.27 0.93-2.54 1.42-3.8 3.04-7.86 8.47-12.07 17.21-11.94 12.57 0.18 25.14 0.17 37.71 0 8.17-0.12 13.69 3.48 16.66 10.94 2.92 7.35 5.68 14.77 8.41 22.2 15.39 41.84 30.75 83.7 46.13 125.55 11.91 32.43 23.83 64.85 35.74 97.28 0.33 0.91 0.71 1.79 1.02 2.71 2.48 7.35 0.35 10.95-7.32 11.09-14.11 0.26-28.24 0.14-42.36 0.05-7.4-0.05-12.23-3.54-14.56-10.83-2.88-9-6.24-17.85-9.42-26.75-0.84-2.35-1.8-4.65-2.94-7.57zm-49.49-146.15h-1.41c-10.12 29.65-20.23 59.28-30.56 89.53h62.54c-10.34-30.29-20.45-59.91-30.56-89.53z"/>
   <path class="cls-1" d="m1036.4 1034.2v157.28c2.13 0.21 4.17 0.57 6.21 0.59 7.15 0.09 14.31-0.07 21.47 0.11 6.59 0.16 9.22 2.64 9.31 9.13 0.17 12.17 0.15 24.35 0 36.52-0.07 5.53-1.86 7.45-7.37 8.67-2.23 0.5-4.57 0.78-6.85 0.79-36.55 0.05-73.11 0.03-109.66 0.03-0.97 0-1.94 0.08-2.9-0.03-9.6-1.04-11.48-3.68-11.5-11.8-0.02-10.82 0-21.64 0-32.47 0-0.77 0.03-1.55 0.1-2.32 0.6-5.92 2.91-8.32 8.84-8.5 7.15-0.22 14.31-0.05 21.46-0.15 2.24-0.03 4.47-0.42 6.77-0.66v-156.73c-2.13-0.19-3.79-0.45-5.46-0.47-6.96-0.05-13.93 0.06-20.89-0.05-7.15-0.11-10.34-3.19-10.42-10.24-0.13-11.98-0.14-23.96-0.04-35.94 0.06-6.78 3.07-9.83 9.83-10.36 2.12-0.17 4.25-0.12 6.38-0.12h105.02c2.32 0 4.66-0.07 6.96 0.17 5.65 0.59 8.21 3.13 9.04 8.78 0.17 1.14 0.25 2.31 0.24 3.46-0.02 10.82 0.04 21.65-0.12 32.47-0.13 8.97-3.04 11.77-11.91 11.81-7.9 0.04-15.8 0-24.5 0z"/>
   <path class="cls-1" d="m2754.4 1034.2v157.29c2.17 0.21 4.21 0.56 6.26 0.58 6.96 0.08 13.93-0.06 20.89 0.08 7.19 0.15 9.72 2.19 9.9 9.14 0.31 12.16 0.26 24.34-0.02 36.5-0.14 5.98-1.9 7.59-7.89 8.87-2.05 0.44-4.2 0.64-6.3 0.64-36.55 0.04-73.1 0.04-109.65 0-2.1 0-4.24-0.23-6.3-0.65-5.92-1.22-7.85-2.98-7.98-8.81-0.28-12.17-0.3-24.35-0.04-36.51 0.14-6.52 2.92-8.99 9.42-9.15 6.96-0.17 13.92-0.03 20.89-0.1 2.08-0.02 4.15-0.29 6.03-0.43 1.59-5.12 1.6-149.43 0.07-157.02-1.53-0.13-3.2-0.39-4.87-0.41-6.96-0.05-13.93 0.07-20.89-0.05-7.12-0.12-10.28-3.19-10.37-10.31-0.15-11.98-0.16-23.96-0.04-35.94 0.07-6.72 3.19-9.78 9.95-10.29 1.73-0.13 3.48-0.11 5.22-0.11h106.75c1.93 0 3.88-0.04 5.8 0.13 6.17 0.54 8.98 3.33 9.66 9.48 0.06 0.57 0.08 1.16 0.08 1.74-0.03 11.4 0.05 22.8-0.14 34.2-0.14 8.24-3.16 11.07-11.37 11.13-8.09 0.06-16.18 0.01-25.06 0.01z"/>
   <path class="cls-1" d="m1644.9 1112.8c0-39.82 0-79.65 0.02-119.47 0-2.5 0-5.05 0.45-7.5 0.97-5.31 3.61-7.66 9.05-8.08 3.27-0.26 6.57-0.15 9.86-0.16 10.83-0.01 21.67-0.08 32.5 0.03 9.2 0.09 12.31 3.14 12.28 12.2-0.16 50.65-0.4 101.29-0.59 151.94-0.05 14.11-0.04 28.22 0 42.34 0.02 6.63 0.27 6.91 6.86 6.91 36.37 0.03 72.74 0.01 109.11 0.02 2.32 0 4.66-0.05 6.96 0.2 4.14 0.45 6.17 2.39 6.91 6.53 0.34 1.89 0.45 3.84 0.45 5.77 0.04 10.25 0.04 20.49 0 30.74 0 1.73-0.11 3.48-0.34 5.2-0.52 3.84-2.45 6.45-6.53 7.01-2.47 0.34-4.96 0.89-7.44 0.89-54.94 0.05-109.89 0.04-164.83 0.04h-0.58c-10.68-0.16-13.48-2.82-13.51-13.42-0.08-28.03-0.03-56.06-0.03-84.09v-37.1h-0.61z"/>
  </g>
 </g>
</svg>
